<?xml version="1.0" standalone="no"?>
<!DOCTYPE svg PUBLIC "-//W3C//DTD SVG 20010904//EN"
 "http://www.w3.org/TR/2001/REC-SVG-20010904/DTD/svg10.dtd">
<svg version="1.0" xmlns="http://www.w3.org/2000/svg"
 width="2716.000000pt" height="2716.000000pt" viewBox="0 0 2716.000000 2716.000000"
 preserveAspectRatio="xMidYMid meet">
<metadata>
Created by potrace 1.14, written by Peter Selinger 2001-2017
</metadata>
<g transform="translate(0.000000,2716.000000) scale(0.100000,-0.100000)"
fill="#000000" stroke="none">
<path d="M11829 26946 c-2 -2 -49 -7 -104 -10 -56 -4 -112 -8 -125 -11 -14 -2
-50 -6 -81 -10 -31 -3 -65 -7 -75 -9 -11 -2 -55 -9 -99 -16 -44 -6 -96 -15
-115 -20 -19 -5 -48 -11 -65 -14 -212 -34 -603 -150 -920 -273 -492 -191 -690
-320 -1113 -722 -234 -221 -377 -397 -494 -605 -59 -106 -218 -437 -218 -456
0 -6 -4 -18 -10 -28 -18 -33 -128 -345 -136 -387 -1 -6 -9 -36 -19 -66 -15
-47 -23 -58 -51 -68 -92 -33 -195 -220 -228 -411 -3 -19 -8 -44 -10 -56 -21
-107 -24 -325 -6 -393 6 -24 10 -44 8 -45 -2 -1 -34 -15 -73 -31 -162 -65
-339 -185 -438 -295 -55 -61 -119 -164 -142 -230 -70 -197 15 -458 247 -762
93 -121 244 -279 272 -284 26 -5 108 -46 111 -57 2 -7 6 -57 9 -112 7 -125 19
-213 50 -350 9 -41 60 -190 68 -202 5 -6 11 -56 13 -110 10 -242 21 -404 30
-448 2 -11 7 -42 10 -69 13 -91 28 -120 71 -133 21 -6 55 -12 74 -12 19 -1 40
-5 46 -9 10 -6 25 -76 39 -182 2 -19 7 -48 10 -65 8 -44 24 -126 31 -155 3
-14 7 -36 10 -50 47 -241 206 -723 327 -990 44 -99 219 -452 277 -560 34 -63
83 -153 108 -200 126 -236 358 -494 714 -793 64 -54 128 -113 142 -132 39 -50
95 -101 151 -137 28 -18 53 -37 58 -43 6 -9 2 -534 -5 -540 -2 -2 -111 -15
-243 -29 -132 -15 -262 -29 -290 -32 -27 -4 -68 -8 -90 -9 -22 -2 -58 -6 -80
-8 -22 -3 -71 -9 -110 -12 -38 -4 -86 -8 -105 -10 -19 -2 -64 -6 -100 -10 -36
-3 -85 -8 -110 -10 -25 -2 -74 -7 -110 -10 -36 -3 -85 -8 -110 -10 -25 -3 -76
-7 -115 -10 -38 -3 -88 -7 -110 -9 -22 -2 -78 -7 -125 -10 -47 -4 -105 -9
-130 -11 -25 -2 -92 -7 -150 -11 -58 -3 -125 -8 -150 -9 -124 -8 -427 -18
-518 -17 -101 0 -105 1 -157 35 -104 70 -268 142 -365 162 -63 13 -170 16
-224 6 -84 -15 -153 -50 -216 -108 -68 -62 -108 -129 -165 -270 -39 -97 -127
-364 -139 -425 -3 -12 -9 -38 -15 -55 -5 -18 -8 -33 -6 -33 3 0 0 -11 -5 -25
-5 -14 -12 -36 -14 -48 -3 -12 -19 -85 -36 -162 -18 -77 -33 -151 -35 -165 -5
-33 -14 -88 -20 -120 -12 -58 -15 -77 -21 -120 -6 -44 -9 -60 -19 -110 -2 -14
-7 -45 -10 -70 -2 -25 -7 -56 -9 -70 -3 -14 -7 -47 -11 -75 -7 -62 -15 -131
-20 -170 -2 -16 -7 -64 -10 -105 -4 -41 -8 -85 -10 -98 -2 -13 -7 -80 -10
-150 l-7 -127 -85 -130 c-48 -71 -94 -141 -103 -155 -9 -14 -28 -45 -42 -70
-14 -25 -59 -101 -98 -170 -164 -283 -486 -911 -740 -1440 -237 -496 -215
-437 -405 -1060 -96 -315 -134 -439 -186 -605 -152 -486 -270 -857 -344 -1080
-29 -88 -69 -212 -89 -275 -41 -127 -49 -140 -80 -140 -13 0 -44 -7 -71 -16
-96 -33 -186 -157 -260 -359 -14 -38 -29 -77 -32 -85 -3 -8 -7 -19 -8 -25 -2
-5 -23 -73 -48 -150 -25 -77 -68 -214 -96 -305 -27 -91 -88 -289 -136 -440
-47 -151 -93 -306 -101 -345 -27 -125 -11 -279 42 -411 l26 -65 -41 -172 c-23
-94 -54 -228 -71 -297 -16 -69 -32 -141 -35 -160 -3 -19 -8 -43 -11 -52 -12
-40 -100 -480 -125 -623 -28 -169 -27 -161 -39 -260 -6 -49 -12 -106 -15 -125
-24 -194 -24 -443 1 -565 2 -11 7 -36 10 -55 3 -19 6 -44 8 -55 9 -53 50 -210
77 -295 60 -183 179 -401 292 -535 103 -122 262 -258 384 -327 47 -27 65 -48
170 -206 64 -97 119 -179 123 -182 3 -3 27 -36 52 -75 26 -38 75 -108 107
-155 33 -47 81 -114 105 -150 25 -36 88 -123 140 -195 l94 -130 -23 -20 c-24
-21 -75 -141 -75 -175 0 -28 32 -57 77 -69 21 -6 47 -17 57 -24 18 -13 18 -16
-4 -76 -22 -58 -22 -64 -8 -94 13 -27 27 -36 74 -51 88 -29 101 -28 175 10
l69 34 105 -140 c61 -82 106 -151 106 -166 1 -13 3 -28 4 -34 1 -5 3 -13 4
-16 0 -4 8 0 17 7 19 16 10 25 164 -172 165 -211 341 -428 508 -627 84 -101
163 -195 175 -210 12 -14 38 -44 58 -66 l36 -40 6112 -4 c3361 -2 6117 -2
6125 1 10 4 11 17 6 54 -5 27 -11 73 -15 102 -4 30 -9 63 -11 75 -3 19 -9 55
-19 136 -5 41 -18 257 -17 283 0 10 -6 17 -18 17 -28 0 -36 38 -12 63 10 12
24 36 29 52 14 44 9 274 -7 310 -12 28 -15 41 -11 63 0 5 12 14 26 20 53 25
62 75 56 340 -1 22 -11 43 -32 64 l-31 33 24 15 c38 25 66 59 70 88 2 15 3 84
2 154 -1 121 -2 129 -28 162 -26 35 -94 64 -116 51 -19 -12 -10 8 20 42 16 18
30 46 31 61 5 147 0 262 -12 287 -23 46 -61 68 -123 69 -62 1 -69 6 -72 44 -8
123 -14 272 -11 272 2 0 13 -8 25 -17 11 -10 33 -28 49 -40 15 -12 80 -64 143
-115 l115 -94 0 -704 c1 -388 4 -714 8 -725 8 -24 53 -52 83 -51 32 1 73 27
81 50 11 33 11 1518 0 1541 -6 11 -13 22 -16 25 -4 3 -38 39 -76 80 -37 41
-94 102 -124 135 -49 53 -162 176 -275 299 -20 22 -37 45 -37 50 -3 24 -6 79
-13 246 -4 96 -9 202 -11 235 -2 33 -7 129 -10 214 -3 85 -7 157 -7 160 -4 41
2 47 50 45 27 -1 63 -11 82 -22 19 -12 66 -32 104 -47 134 -50 408 -200 531
-291 108 -80 429 -241 632 -318 216 -81 514 -170 703 -210 132 -28 279 -56
313 -60 23 -3 51 -7 62 -10 30 -6 102 -15 170 -21 33 -3 71 -8 83 -10 124 -21
698 -22 719 -1 3 3 16 6 27 6 23 0 199 41 281 64 28 8 77 22 110 31 143 37
318 100 421 150 208 102 323 241 414 498 28 80 67 228 75 292 3 17 7 40 9 52
24 115 24 457 1 584 -3 13 -7 42 -10 64 -10 69 -12 78 -29 165 -32 158 -104
396 -174 570 -76 193 -134 395 -167 585 -8 50 -17 99 -19 110 -2 11 -7 43 -10
70 -4 28 -11 68 -16 90 -5 22 -11 58 -14 80 -4 22 -8 47 -11 55 -2 8 -7 27
-10 43 -3 15 -7 39 -10 55 -3 15 -17 72 -31 127 -14 55 -27 109 -30 119 -2 10
-9 35 -16 55 -7 20 -13 38 -13 41 -44 177 -166 487 -315 805 -106 225 -225
475 -310 650 -51 105 -105 217 -120 250 -15 33 -62 131 -104 219 -42 87 -76
159 -76 161 0 1 -29 64 -65 139 -36 75 -65 138 -65 140 0 2 -18 43 -41 91 -67
145 -90 197 -116 270 -14 39 -34 82 -44 97 -11 14 -19 29 -19 32 0 3 -11 29
-24 58 -215 472 -527 1332 -611 1684 -3 10 -12 46 -20 79 -9 33 -20 83 -26
110 -6 28 -15 68 -20 90 -14 68 -16 78 -29 155 -68 415 -230 821 -462 1159
-214 312 -455 569 -807 864 l-34 28 -3 102 c-3 130 -14 385 -19 457 -7 104
-16 215 -20 255 -2 22 -7 67 -10 100 -4 33 -8 80 -11 105 -2 25 -7 61 -9 80
-3 19 -8 56 -10 82 -6 63 -63 403 -75 448 -5 19 -12 51 -15 70 -21 126 -98
361 -146 445 -59 105 -147 177 -251 205 -71 19 -222 17 -339 -5 -138 -26 -236
-26 -494 0 -22 2 -76 7 -120 11 -44 4 -89 8 -100 9 -11 1 -56 5 -100 9 -44 4
-94 9 -111 11 -17 3 -65 7 -105 10 -41 3 -90 8 -109 10 -48 6 -132 14 -210 20
-36 3 -76 7 -90 10 -14 2 -60 7 -103 10 -43 4 -88 8 -100 10 -12 2 -62 7 -112
11 -49 4 -92 8 -95 9 -3 1 -45 5 -95 9 -49 5 -97 10 -106 11 -9 2 -52 6 -97
10 -44 3 -91 8 -104 10 -12 2 -54 6 -93 10 -38 3 -86 8 -105 10 -59 7 -242 25
-300 31 -30 2 -71 7 -90 9 -19 3 -62 7 -95 10 -33 3 -76 8 -95 10 -19 2 -64 7
-100 10 -36 3 -74 8 -85 10 -11 2 -32 4 -47 4 -18 1 -43 16 -75 49 -55 55
-135 112 -156 112 -21 0 -35 21 -42 60 -3 18 -7 36 -9 39 -2 3 -7 26 -10 51
-3 25 -8 56 -11 70 -2 13 -7 42 -10 65 -4 22 -8 51 -10 65 -8 57 -20 159 -30
275 -3 39 -8 81 -10 95 -2 14 -7 72 -10 130 -3 58 -8 132 -10 165 -5 76 -15
261 -20 384 -3 66 0 101 9 120 40 77 134 407 192 676 l9 40 130 -3 c145 -4
132 -8 234 83 116 105 304 417 451 750 34 77 70 158 80 181 17 38 59 142 117
294 13 36 28 74 33 85 16 38 106 294 180 515 43 127 135 418 146 460 35 136
83 274 95 272 7 -2 50 -8 95 -14 77 -11 83 -10 119 12 91 56 99 203 21 405
-31 81 -42 120 -50 190 -4 28 -9 64 -11 80 -3 17 -7 47 -10 67 -20 148 -75
414 -119 582 -28 105 -91 308 -106 341 -5 11 -21 52 -36 90 -30 78 -97 217
-124 255 -18 27 -38 79 -46 120 -3 14 -14 61 -25 105 -26 102 -28 111 -33 134
-48 216 -206 681 -289 851 -25 52 -118 200 -159 255 -51 67 -78 107 -78 114 0
5 -4 11 -8 13 -5 2 -32 35 -62 73 -297 388 -688 738 -1085 972 -106 62 -322
168 -432 211 -161 64 -400 141 -488 156 -16 3 -46 10 -65 16 -59 17 -285 52
-425 66 -72 7 -570 16 -576 10z m-2272 -11491 c0 -8 -4 -15 -9 -15 -4 0 -8 5
-8 12 0 6 -3 8 -6 5 -4 -4 -2 -12 3 -19 15 -19 4 -88 -16 -95 -9 -3 -24 -13
-33 -21 -11 -9 -22 -12 -31 -6 -7 5 -4 1 6 -8 22 -21 18 -22 -17 -7 -14 7 -23
15 -21 19 3 5 -2 11 -11 14 -10 4 -13 2 -8 -6 4 -6 3 -8 -4 -4 -6 3 -10 25 -9
48 2 36 7 44 36 60 18 10 36 17 39 14 2 -3 14 1 26 9 27 19 63 19 63 0z m-32
-142 c-2 -10 -4 -25 -4 -33 -1 -13 -2 -13 -11 0 -5 8 -10 11 -10 5 0 -5 -4 -3
-10 5 -5 9 -5 19 2 27 15 19 37 16 33 -4z m9076 -1140 c13 -16 12 -17 -3 -4
-17 13 -22 21 -14 21 2 0 10 -8 17 -17z m107 -80 c10 -10 40 -36 67 -58 28
-22 66 -55 85 -74 19 -18 -11 4 -68 49 -56 46 -105 87 -108 91 -9 15 5 10 24
-8z m-11560 -7348 c0 -25 -3 -43 -8 -40 -5 3 -12 1 -15 -5 -4 -6 -3 -9 2 -8 4
2 10 -1 11 -7 2 -5 8 -18 13 -27 5 -10 7 -18 3 -18 -4 0 -13 8 -21 18 -9 9 -7
4 3 -13 19 -33 28 -105 13 -105 -6 0 -8 4 -5 8 3 5 -2 9 -11 9 -13 0 -12 -4 5
-17 19 -16 19 -18 4 -34 -10 -10 -12 -16 -4 -16 7 0 12 5 12 10 0 6 5 10 10
10 7 0 7 -6 1 -19 -6 -10 -8 -21 -4 -24 3 -4 7 -18 8 -32 2 -17 -1 -23 -8 -18
-7 4 -6 -1 2 -10 11 -14 11 -17 0 -18 -10 0 -11 -2 -1 -6 15 -6 16 -33 1 -33
-5 0 -7 5 -4 10 9 15 -7 11 -30 -6 l-20 -16 20 6 c26 7 49 -8 42 -28 -3 -8 -1
-18 5 -22 6 -4 -5 -20 -28 -41 -22 -19 -33 -32 -26 -28 6 3 12 1 12 -4 0 -6 5
-11 11 -11 8 0 8 4 0 14 -10 12 -8 17 7 25 19 10 32 6 32 -10 0 -5 -8 -6 -17
-3 -17 5 -17 5 0 -6 16 -10 16 -13 2 -27 -9 -8 -13 -18 -10 -21 3 -4 11 0 16
8 8 12 9 11 7 -5 -3 -13 -10 -19 -23 -17 -16 2 -17 1 -5 -7 8 -5 17 -8 21 -5
13 7 18 -23 6 -35 -9 -9 -9 -14 2 -20 9 -6 10 -11 2 -15 -8 -5 -8 -13 0 -27 7
-15 7 -24 -2 -35 -6 -8 -7 -14 -2 -14 5 0 9 -18 10 -40 1 -38 -5 -45 -34 -41
-18 2 -27 -19 -13 -32 10 -9 12 -8 7 4 -4 12 1 17 17 17 19 0 22 -6 24 -48 1
-41 -1 -48 -16 -45 -9 2 -21 4 -25 4 -5 1 -6 5 -2 11 3 5 11 8 18 6 7 -1 9 -1
4 1 -4 3 -4 9 -1 15 3 5 -3 4 -15 -4 -12 -7 -21 -16 -21 -20 0 -7 42 -33 48
-30 1 1 1 -1 0 -5 -2 -5 -6 -7 -10 -6 -4 2 -5 -4 -2 -12 4 -8 1 -15 -7 -15 -7
0 -9 -3 -6 -7 11 -11 -14 -32 -31 -26 -14 4 -14 3 -3 -5 12 -9 12 -14 -2 -36
-9 -14 -17 -32 -17 -41 0 -8 -4 -15 -10 -15 -5 0 -9 -3 -8 -7 0 -5 -1 -15 -4
-23 -4 -8 -9 -24 -14 -35 -4 -11 -6 -23 -6 -27 1 -5 -6 -8 -16 -9 -10 0 -12
-3 -4 -6 6 -2 12 -9 12 -14 0 -6 -4 -7 -10 -4 -5 3 -10 1 -10 -4 0 -6 4 -11 9
-11 5 0 9 -11 9 -25 0 -13 -4 -22 -9 -20 -4 3 -11 0 -14 -5 -5 -7 -12 -5 -20
7 -7 10 -17 15 -21 10 -4 -4 -2 -7 4 -7 7 0 12 -5 12 -11 0 -5 -5 -7 -12 -3
-7 4 -8 3 -4 -4 4 -7 2 -12 -3 -12 -6 0 -11 -5 -11 -12 0 -6 9 -3 20 7 22 20
27 11 8 -15 -7 -9 -1 -3 13 13 17 18 29 25 34 18 9 -16 2 -105 -10 -113 -6 -5
-4 -8 5 -8 13 0 13 -1 0 -11 -11 -8 -12 -12 -2 -16 6 -2 9 -9 6 -15 -6 -10
-11 -69 -13 -171 -1 -29 -5 -46 -11 -42 -5 3 -10 1 -10 -4 0 -6 5 -11 10 -11
6 0 10 -7 10 -15 0 -8 -6 -15 -12 -15 -9 0 -10 -3 -2 -8 6 -4 9 -27 7 -52 -2
-25 -4 -52 -4 -60 -2 -39 -10 -40 -44 -7 -37 36 -50 63 -15 32 11 -10 20 -14
20 -9 0 5 5 2 11 -6 7 -10 9 -11 7 -2 -2 8 -7 13 -11 13 -13 -2 -35 24 -30 34
3 6 -2 2 -12 -7 -18 -17 -18 -18 0 -38 10 -11 13 -20 7 -20 -7 0 -12 -5 -12
-12 0 -9 3 -9 12 0 14 14 32 16 24 3 -6 -8 21 -26 35 -23 4 1 6 -19 6 -43 -1
-25 -5 -45 -10 -45 -4 0 -3 -9 3 -20 9 -17 8 -20 -12 -21 -15 -1 -17 -3 -7 -6
10 -2 16 -15 17 -34 0 -16 -4 -27 -9 -24 -5 4 -9 1 -9 -4 0 -6 4 -11 9 -11 5
0 9 -16 9 -35 0 -19 -4 -35 -9 -35 -5 0 -9 -5 -9 -11 0 -5 6 -7 13 -3 7 5 6 0
-3 -11 -12 -14 -12 -19 -2 -23 10 -3 10 -7 1 -18 -6 -8 -8 -14 -3 -14 4 0 -1
-6 -12 -14 -16 -13 -17 -17 -5 -28 12 -11 13 -10 8 5 -4 9 -2 17 3 17 6 0 10
-12 10 -26 0 -16 -4 -23 -12 -18 -7 4 -8 3 -4 -5 16 -25 14 -61 -3 -61 -13 0
-13 -2 -2 -9 10 -7 12 -28 8 -92 -3 -46 -6 -86 -7 -89 -1 -7 -20 24 -20 33 0
5 5 5 12 1 7 -4 8 -3 4 5 -4 7 -13 10 -19 8 -17 -6 -57 52 -49 71 5 15 3 15
-11 4 -14 -12 -17 -10 -23 12 -3 14 -10 23 -15 20 -5 -3 -12 2 -16 12 -3 9
-21 31 -40 50 -18 18 -33 41 -33 50 0 10 -3 14 -7 11 -10 -11 -42 23 -36 39 3
8 -1 14 -9 14 -16 0 -84 77 -80 91 1 5 -2 9 -8 9 -5 0 -41 31 -80 70 l-70 69
27 16 c16 9 20 14 11 11 -24 -7 -49 4 -41 18 3 6 -3 3 -14 -7 -12 -11 -24 -14
-27 -9 -8 13 3 42 16 42 6 0 4 -8 -3 -17 -13 -16 -12 -17 4 -4 12 9 14 17 7
26 -11 13 11 51 42 73 12 9 17 21 13 33 -4 12 -2 19 6 19 7 0 9 3 6 7 -4 3 1
12 11 20 9 8 11 11 4 8 -10 -5 -8 3 4 26 10 19 19 36 19 39 5 23 38 80 59 103
15 15 24 27 20 27 -4 0 0 8 9 18 16 17 17 20 17 48 0 9 5 12 12 8 7 -5 9 -2 5
8 -3 9 1 25 8 36 8 10 11 22 8 26 -3 3 0 6 7 6 7 0 11 3 7 6 -3 3 5 36 19 73
14 36 27 77 30 91 3 13 9 29 15 36 5 6 6 14 2 17 -3 4 -1 7 4 7 6 0 14 -6 16
-12 4 -8 6 -7 6 4 1 9 -5 19 -11 21 -10 4 -10 8 1 15 7 5 10 15 7 21 -4 6 -3
11 3 11 5 0 8 8 7 18 -2 9 0 27 5 40 7 18 14 22 30 17 15 -5 19 -4 15 4 -4 6
-14 11 -22 11 -8 0 -14 5 -14 10 0 6 8 10 18 10 12 0 14 2 4 8 -7 5 -10 16 -6
25 3 9 10 14 15 11 5 -3 9 0 9 5 0 6 -4 11 -9 11 -11 0 3 66 18 84 6 7 8 16 5
19 -3 3 -2 12 2 19 9 14 11 19 13 44 0 8 5 13 10 10 5 -4 7 4 3 16 -3 13 -1
19 5 15 6 -4 11 4 11 21 0 35 28 140 59 222 3 8 7 20 8 25 7 40 19 76 26 81 5
3 7 10 4 15 -4 5 5 13 19 19 29 11 34 25 11 34 -8 3 -15 12 -15 21 0 19 27 20
32 1 2 -7 10 2 20 21 9 19 14 32 11 29 -3 -3 -12 2 -18 11 -11 15 -12 13 -9
-14 3 -25 0 -31 -11 -27 -16 7 -19 17 -8 28 4 3 8 16 10 28 2 12 7 25 11 28 6
5 8 13 14 63 1 9 5 17 8 17 3 0 7 10 8 23 2 24 5 35 16 82 21 81 24 84 24 20z
m-93 -345 c3 -5 -1 -10 -9 -10 -9 0 -16 5 -16 10 0 6 4 10 9 10 6 0 13 -4 16
-10z m-553 -1492 c-7 -7 -12 -8 -12 -2 0 14 12 26 19 19 2 -3 -1 -11 -7 -17z
m-12 -143 c0 -2 -7 -5 -15 -9 -9 -3 -15 0 -15 9 0 9 6 12 15 9 8 -4 15 -7 15
-9z m-1860 -3179 c0 -3 -4 -8 -10 -11 -5 -3 -10 -1 -10 4 0 6 5 11 10 11 6 0
10 -2 10 -4z"/>
<path d="M9486 15441 c-4 -6 -14 -7 -24 -4 -18 7 -17 5 12 -17 11 -8 17 -10
13 -3 -4 6 -1 13 5 16 7 2 10 7 7 11 -4 4 -10 3 -13 -3z"/>
<path d="M9505 15413 c-3 -10 -1 -19 4 -21 6 -2 9 -8 5 -13 -3 -5 0 -9 5 -9
14 0 14 13 -1 28 -9 9 -9 12 0 12 7 0 12 5 12 10 0 16 -17 11 -25 -7z"/>
<path d="M9409 15403 c-13 -16 -12 -17 4 -4 16 13 21 21 13 21 -2 0 -10 -8
-17 -17z"/>
<path d="M9427 15394 c-10 -14 -16 -30 -14 -37 3 -7 6 -4 6 6 1 10 5 16 11 12
5 -3 6 -13 3 -23 -3 -9 4 -5 15 10 12 14 22 32 22 40 -1 7 -6 3 -13 -10 -7
-12 -16 -20 -20 -16 -4 4 -2 13 5 21 6 7 9 15 7 17 -2 2 -12 -7 -22 -20z"/>
<path d="M9479 15379 c-1 -8 -1 -20 0 -26 1 -8 -5 -10 -16 -6 -15 5 -16 4 -5
-8 11 -12 15 -11 26 3 7 10 17 14 22 10 4 -4 2 2 -6 13 -8 11 -16 22 -17 24
-2 2 -4 -2 -4 -10z"/>
<path d="M7116 6615 c-3 -9 1 -18 9 -21 8 -4 12 -11 8 -17 -3 -6 -1 -7 5 -3 9
5 9 13 1 29 -16 30 -16 30 -23 12z"/>
<path d="M7103 6569 c-2 -23 3 -25 10 -4 4 8 3 16 -1 19 -4 3 -9 -4 -9 -15z"/>
<path d="M7110 6530 c8 -5 11 -12 7 -16 -3 -4 -15 -1 -24 7 -17 12 -17 12 -1
-6 13 -14 21 -16 29 -8 13 13 4 33 -14 33 -7 0 -6 -4 3 -10z"/>
<path d="M7119 6473 c-1 -4 -1 -11 0 -15 0 -5 -3 -8 -7 -8 -5 0 -14 -12 -21
-27 -10 -26 -9 -25 18 7 23 26 31 30 31 18 0 -10 5 -18 10 -18 7 0 7 6 0 19
-12 23 -29 36 -31 24z"/>
<path d="M7116 6415 c-3 -9 -2 -24 2 -32 8 -13 10 -13 16 2 3 9 2 24 -2 32 -8
13 -10 13 -16 -2z"/>
<path d="M7093 6364 c0 -23 1 -24 9 -10 7 12 7 21 0 28 -6 6 -9 0 -9 -18z"/>
<path d="M7070 6369 c0 -5 -5 -7 -12 -3 -6 4 -4 -3 5 -15 8 -13 13 -31 10 -40
-4 -13 -3 -14 5 -2 6 8 7 22 3 30 -5 9 -6 22 -4 29 3 6 2 12 -1 12 -3 0 -6 -5
-6 -11z"/>
<path d="M7034 6339 c-7 -12 17 -32 26 -22 3 3 -1 8 -8 10 -6 3 -10 9 -6 14 3
5 3 9 0 9 -3 0 -8 -5 -12 -11z"/>
<path d="M7121 6309 c24 -24 36 -25 18 -2 -12 15 -12 16 4 10 10 -4 16 -3 13
2 -3 5 -16 9 -30 9 -23 0 -23 -1 -5 -19z"/>
<path d="M7030 6300 c0 -6 7 -10 15 -10 8 0 15 2 15 4 0 2 -7 6 -15 10 -8 3
-15 1 -15 -4z"/>
<path d="M7101 6294 c12 -15 11 -16 -11 -10 -21 6 -22 5 -7 -4 9 -6 22 -8 27
-5 6 3 10 2 10 -4 0 -19 -20 -22 -47 -6 -27 16 -27 16 -5 0 12 -10 22 -24 22
-33 0 -10 7 -6 20 11 18 22 19 29 8 47 -7 11 -17 20 -22 20 -4 0 -2 -7 5 -16z"/>
<path d="M7006 6284 c-4 -9 -4 -19 -1 -22 3 -3 5 1 5 9 1 9 8 6 20 -10 26 -30
26 -17 1 15 -16 21 -20 22 -25 8z"/>
<path d="M7003 6235 c-19 -21 -16 -27 7 -13 11 7 20 16 20 20 0 12 -14 9 -27
-7z"/>
<path d="M7064 6242 c3 -5 0 -12 -6 -15 -7 -2 -10 -7 -7 -11 3 -4 12 0 18 8 9
11 9 16 0 22 -7 4 -9 3 -5 -4z"/>
<path d="M7034 6208 c3 -10 1 -20 -4 -23 -5 -3 -11 3 -13 12 -4 15 -5 15 -6 2
0 -9 8 -24 19 -34 11 -10 20 -13 20 -7 0 7 -5 12 -11 12 -5 0 -7 5 -4 10 5 8
11 7 21 0 7 -7 19 -10 26 -7 8 3 6 6 -5 6 -10 1 -15 6 -12 11 4 6 11 8 16 5 5
-4 17 -2 26 4 16 9 15 10 -7 9 -14 -1 -30 -5 -37 -10 -7 -6 -16 -3 -23 9 -10
16 -11 16 -6 1z"/>
<path d="M6988 6183 c5 -10 7 -25 5 -33 -4 -13 -3 -13 6 -1 9 14 -2 51 -15 51
-2 0 -1 -8 4 -17z"/>
<path d="M7105 6171 c-4 -13 -2 -28 4 -34 8 -8 6 -16 -5 -28 -9 -10 -14 -24
-11 -31 3 -8 6 -6 6 5 1 12 6 16 14 11 6 -4 9 -4 5 1 -4 4 -3 14 3 21 7 8 7
14 -1 19 -5 3 -10 13 -10 22 0 11 5 9 20 -8 10 -13 19 -18 20 -11 0 6 -4 12
-8 12 -5 0 -13 10 -19 23 l-10 22 -8 -24z"/>
<path d="M7007 6136 c-6 -15 11 -36 28 -36 5 0 2 5 -8 11 -14 8 -16 14 -6 25
7 8 7 14 1 14 -5 0 -12 -6 -15 -14z"/>
<path d="M7046 6135 c-25 -19 -9 -19 24 0 14 8 19 14 10 14 -8 0 -24 -6 -34
-14z"/>
<path d="M6960 6136 c0 -2 7 -7 16 -10 8 -3 12 -2 9 4 -6 10 -25 14 -25 6z"/>
<path d="M7156 6123 c-6 -14 -5 -15 5 -6 7 7 10 15 7 18 -3 3 -9 -2 -12 -12z"/>
<path d="M7075 6120 c-3 -5 -2 -10 4 -10 5 0 13 5 16 10 3 6 2 10 -4 10 -5 0
-13 -4 -16 -10z"/>
<path d="M6974 6098 c-5 -8 -2 -9 10 -5 13 5 17 3 13 -6 -10 -25 8 -38 22 -16
7 12 8 18 3 15 -6 -3 -12 1 -16 9 -6 18 -22 19 -32 3z"/>
<path d="M7050 6103 c0 -4 5 -15 10 -23 8 -13 10 -13 10 2 0 9 -4 20 -10 23
-5 3 -10 3 -10 -2z"/>
<path d="M7130 6101 c0 -6 5 -11 11 -11 5 0 7 -6 3 -12 -5 -9 -2 -9 9 1 9 7
17 16 17 19 0 3 -3 2 -7 -1 -3 -4 -12 -2 -20 4 -9 9 -13 8 -13 0z"/>
<path d="M6945 6079 c-5 -7 -4 -10 3 -5 6 3 16 -2 22 -13 8 -16 6 -23 -12 -35
-17 -12 -19 -16 -6 -16 9 0 18 -3 21 -7 2 -5 2 -2 0 6 -2 7 2 20 9 28 9 11 7
18 -9 35 -16 15 -22 17 -28 7z"/>
<path d="M7035 6070 c-3 -5 -1 -10 4 -10 6 0 11 5 11 10 0 6 -2 10 -4 10 -3 0
-8 -4 -11 -10z"/>
<path d="M7110 6070 c0 -5 5 -10 10 -10 6 0 10 5 10 10 0 6 -4 10 -10 10 -5 0
-10 -4 -10 -10z"/>
<path d="M7144 6054 c-18 -14 -18 -15 4 -4 12 6 22 13 22 15 0 8 -5 6 -26 -11z"/>
<path d="M6946 6043 c-6 -14 -5 -15 5 -6 7 7 10 15 7 18 -3 3 -9 -2 -12 -12z"/>
<path d="M7056 6051 c-4 -5 4 -7 16 -4 19 4 20 3 8 -6 -18 -13 -1 -15 18 -2
11 7 10 10 -3 15 -23 8 -33 8 -39 -3z"/>
<path d="M7015 6039 c-8 -11 22 -49 38 -49 6 0 2 7 -9 16 -18 15 -18 15 5 8
17 -4 21 -3 16 6 -4 6 -16 10 -26 7 -21 -6 -26 8 -6 16 9 4 9 6 0 6 -6 1 -15
-4 -18 -10z"/>
<path d="M7160 6040 c-9 -6 -10 -10 -3 -10 6 0 15 5 18 10 8 12 4 12 -15 0z"/>
<path d="M6993 6004 c0 -17 2 -22 7 -13 5 6 6 18 3 26 -8 19 -10 16 -10 -13z"/>
<path d="M7089 6013 c-13 -15 -12 -15 9 -4 17 9 27 9 45 0 20 -11 21 -11 8 4
-7 10 -21 17 -31 17 -10 0 -24 -7 -31 -17z"/>
<path d="M7108 5993 c6 -2 18 -2 25 0 6 3 1 5 -13 5 -14 0 -19 -2 -12 -5z"/>
<path d="M7165 5992 c-15 -10 -55 -68 -55 -79 0 -4 10 7 21 25 12 17 25 32 29
32 4 0 10 7 14 15 6 17 5 18 -9 7z"/>
<path d="M6936 5981 c-3 -5 6 -8 20 -8 19 0 22 2 13 8 -18 11 -26 11 -33 0z"/>
<path d="M6995 5969 c-10 -11 -25 -17 -32 -15 -7 3 -13 1 -13 -4 0 -17 24 -11
55 15 17 13 26 24 20 24 -5 0 -19 -9 -30 -20z"/>
<path d="M7059 5969 c-8 -15 -8 -19 0 -15 6 4 11 2 11 -3 0 -6 5 -11 12 -11 9
0 9 3 0 12 -7 7 -12 17 -12 23 1 5 10 -1 20 -14 22 -26 27 -16 6 12 -17 22
-23 22 -37 -4z"/>
<path d="M7035 5969 c-4 -6 -5 -12 -2 -15 2 -3 7 2 10 11 7 17 1 20 -8 4z"/>
<path d="M7160 5950 c-9 -6 -10 -10 -3 -10 6 0 15 5 18 10 8 12 4 12 -15 0z"/>
<path d="M6910 5942 c0 -6 9 -12 20 -15 11 -3 20 -3 20 -1 0 2 -9 8 -20 14
-11 6 -20 7 -20 2z"/>
<path d="M6994 5935 c-4 -8 -10 -12 -16 -9 -5 3 -4 -3 3 -15 14 -22 31 -9 22
17 -5 12 -2 12 15 3 12 -7 22 -9 22 -6 0 3 8 1 18 -4 11 -6 24 -6 32 -1 12 7
11 9 -5 9 -27 -1 -53 6 -61 14 -12 11 -24 8 -30 -8z"/>
<path d="M6895 5911 c-3 -5 0 -13 6 -17 7 -4 9 -3 5 4 -3 6 2 13 11 15 16 4
16 5 1 6 -9 0 -19 -3 -23 -8z"/>
<path d="M6932 5898 c-15 -15 -16 -31 -1 -26 6 2 10 8 9 13 -1 5 7 12 17 16
14 6 14 8 3 8 -9 1 -21 -4 -28 -11z"/>
<path d="M7017 5903 c-4 -3 -7 -13 -7 -22 1 -13 3 -13 11 2 11 19 8 33 -4 20z"/>
<path d="M7090 5901 c0 -5 7 -12 16 -15 8 -3 12 -11 8 -17 -4 -8 -9 -7 -15 2
-5 8 -9 9 -9 3 0 -6 8 -18 17 -25 11 -10 14 -10 9 -1 -4 6 -2 12 3 12 18 0 12
24 -9 38 -11 7 -20 8 -20 3z"/>
<path d="M6965 5880 c3 -5 2 -10 -3 -10 -16 0 -23 -30 -11 -52 9 -17 8 -19 -9
-14 -11 4 -23 2 -26 -3 -5 -8 34 -9 52 -2 1 0 -2 10 -8 21 -9 16 -7 24 5 36
17 18 20 34 4 34 -5 0 -7 -4 -4 -10z"/>
<path d="M7050 5879 c0 -5 -4 -7 -10 -4 -14 9 -12 -7 4 -27 11 -15 13 -14 13
12 0 17 -2 30 -4 30 -1 0 -3 -5 -3 -11z"/>
<path d="M6895 5860 c3 -5 14 -10 23 -10 15 0 15 2 2 10 -20 13 -33 13 -25 0z"/>
<path d="M6992 5865 c4 -4 0 -13 -8 -20 -14 -10 -15 -14 -3 -33 8 -12 18 -22
23 -22 4 0 3 6 -3 14 -8 10 -9 16 -1 21 6 3 8 11 5 16 -4 5 -2 9 3 9 16 0 22
-13 11 -27 -7 -8 -8 -13 -1 -13 15 0 22 27 9 38 -19 14 -43 26 -35 17z m8 -29
c0 -3 -4 -8 -10 -11 -5 -3 -10 -1 -10 4 0 6 5 11 10 11 6 0 10 -2 10 -4z"/>
<path d="M7073 5844 c0 -17 2 -22 7 -13 5 6 6 18 3 26 -8 19 -10 16 -10 -13z"/>
<path d="M6870 5840 c0 -5 5 -10 10 -10 6 0 10 5 10 10 0 6 -4 10 -10 10 -5 0
-10 -4 -10 -10z"/>
<path d="M6895 5820 c-4 -6 -11 -8 -16 -5 -5 4 -9 1 -9 -4 0 -14 10 -13 40 4
18 10 20 14 8 15 -9 0 -20 -5 -23 -10z"/>
<path d="M7083 5815 c-15 -16 -16 -25 -5 -25 4 0 13 9 20 20 14 23 3 26 -15 5z"/>
<path d="M7106 5795 c-9 -14 -13 -25 -9 -25 10 0 36 40 30 46 -2 3 -12 -7 -21
-21z"/>
<path d="M7028 5793 c6 -2 10 -9 7 -14 -4 -5 2 -6 12 -2 16 6 17 5 4 -11 -14
-17 -15 -17 -28 0 -11 16 -13 16 -13 1 0 -9 -8 -21 -17 -26 -10 -6 -13 -11 -7
-11 5 0 15 5 22 12 8 8 15 8 28 -3 10 -8 15 -9 12 -4 -5 9 15 36 24 32 2 -1
-5 6 -15 16 -11 9 -24 17 -31 16 -7 0 -6 -2 2 -6z"/>
<path d="M6890 5783 c0 -4 5 -15 10 -23 8 -13 10 -13 10 2 0 9 -4 20 -10 23
-5 3 -10 3 -10 -2z"/>
<path d="M6970 5780 c0 -5 5 -10 11 -10 5 0 7 -5 3 -12 -4 -7 -3 -8 5 -4 9 6
9 11 0 22 -14 17 -19 18 -19 4z"/>
<path d="M7125 5780 c-3 -5 -2 -10 4 -10 5 0 13 5 16 10 3 6 2 10 -4 10 -5 0
-13 -4 -16 -10z"/>
<path d="M6931 5771 c-1 -17 -51 -65 -51 -49 0 6 -3 9 -6 5 -11 -10 6 -26 22
-20 8 3 13 8 10 10 -3 3 4 13 16 22 11 10 18 24 15 32 -4 11 -6 12 -6 0z"/>
<path d="M6870 5750 c0 -5 5 -10 10 -10 6 0 10 5 10 10 0 6 -4 10 -10 10 -5 0
-10 -4 -10 -10z"/>
<path d="M6950 5750 c0 -5 5 -10 10 -10 6 0 10 5 10 10 0 6 -4 10 -10 10 -5 0
-10 -4 -10 -10z"/>
<path d="M7062 5729 c-8 -12 -9 -18 -4 -15 6 3 12 3 15 -1 2 -5 2 -3 1 4 -2 7
1 15 6 18 9 6 14 -8 11 -27 0 -5 4 -8 9 -8 13 0 13 6 0 31 -14 24 -22 24 -38
-2z"/>
<path d="M6945 5717 c10 -8 25 -12 33 -10 17 7 10 13 -24 19 -27 5 -28 4 -9
-9z"/>
<path d="M7010 5726 c0 -2 7 -7 16 -10 8 -3 12 -2 9 4 -6 10 -25 14 -25 6z"/>
<path d="M6914 5695 c-4 -8 -10 -12 -16 -9 -5 3 -4 -3 3 -15 14 -22 31 -9 22
17 -5 12 -2 12 18 2 22 -12 23 -12 10 3 -17 21 -30 22 -37 2z"/>
<path d="M6994 5695 c-4 -8 -11 -12 -16 -9 -16 10 9 -31 28 -47 12 -9 15 -9
10 -1 -4 6 -2 12 3 12 6 0 11 5 11 11 0 8 -4 9 -13 0 -14 -11 -27 -5 -27 11 0
5 4 7 9 3 5 -3 13 0 17 6 4 8 3 9 -4 5 -7 -4 -12 -3 -12 3 0 5 6 12 13 14 9 4
9 6 -1 6 -7 1 -15 -6 -18 -14z"/>
<path d="M7030 5691 c0 -6 7 -7 17 -4 11 4 14 3 9 -5 -4 -7 -2 -12 4 -12 7 0
10 6 8 13 -6 15 -38 22 -38 8z"/>
<path d="M6833 5669 c-2 -23 3 -25 10 -4 4 8 3 16 -1 19 -4 3 -9 -4 -9 -15z"/>
<path d="M6862 5668 c-7 -7 -12 -19 -12 -27 1 -11 5 -8 13 7 7 12 17 19 22 15
4 -4 5 -2 1 5 -9 15 -9 15 -24 0z"/>
<path d="M6937 5663 c-4 -3 -7 -11 -7 -17 0 -6 5 -5 12 2 6 6 9 14 7 17 -3 3
-9 2 -12 -2z"/>
<path d="M7075 5660 c-4 -6 -13 -9 -21 -6 -11 4 -12 2 -1 -14 8 -14 13 -16 16
-8 2 7 9 16 15 20 6 4 8 10 4 13 -3 4 -9 1 -13 -5z"/>
<path d="M6874 5639 c-3 -6 -1 -16 5 -22 8 -8 16 -6 29 7 9 11 11 16 5 12 -7
-4 -13 -2 -13 3 0 14 -17 14 -26 0z m21 -9 c3 -5 1 -10 -4 -10 -6 0 -11 5 -11
10 0 6 2 10 4 10 3 0 8 -4 11 -10z"/>
<path d="M6957 5644 c-3 -3 -3 -13 1 -22 5 -15 4 -15 -11 -3 -9 7 -17 9 -17 3
0 -14 28 -23 35 -12 4 6 3 15 0 20 -3 6 -2 10 4 10 16 0 24 -21 12 -33 -6 -6
-11 -16 -11 -21 0 -6 5 -3 11 7 5 9 17 17 26 17 11 0 8 6 -10 20 -27 22 -31
23 -40 14z"/>
<path d="M7030 5630 c0 -5 5 -10 11 -10 5 0 7 5 4 10 -3 6 -8 10 -11 10 -2 0
-4 -4 -4 -10z"/>
<path d="M6834 5622 c3 -6 1 -12 -6 -14 -8 -3 -7 -6 3 -10 27 -10 40 6 18 21
-12 7 -18 8 -15 3z"/>
<path d="M6901 5600 c-9 -5 -4 -7 13 -7 29 0 32 2 13 10 -8 3 -20 2 -26 -3z"/>
<path d="M7030 5602 c0 -5 7 -9 15 -9 8 0 15 4 15 9 0 4 -7 8 -15 8 -8 0 -15
-4 -15 -8z"/>
<path d="M6994 5589 c-4 -7 -3 -9 4 -5 5 3 12 0 15 -6 2 -7 7 -10 11 -7 4 3 0
12 -8 18 -11 9 -16 9 -22 0z"/>
<path d="M6815 5580 c3 -5 8 -10 11 -10 2 0 4 5 4 10 0 6 -5 10 -11 10 -5 0
-7 -4 -4 -10z"/>
<path d="M6872 5576 c7 -8 15 -12 17 -11 5 6 -10 25 -20 25 -5 0 -4 -6 3 -14z"/>
<path d="M6945 5579 c-4 -6 -4 -13 -1 -17 4 -3 -4 -12 -16 -19 -16 -9 -18 -12
-7 -13 9 0 24 10 35 22 10 12 13 18 5 13 -11 -6 -13 -4 -8 8 7 19 2 23 -8 6z"/>
<path d="M6907 5573 c-10 -10 -8 -23 4 -23 5 0 8 4 5 9 -4 5 0 12 6 14 7 3 8
6 2 6 -6 1 -14 -2 -17 -6z"/>
<path d="M6860 5562 c0 -6 7 -18 15 -26 13 -12 14 -20 5 -38 -11 -22 -10 -22
4 -4 20 25 20 28 -4 56 -11 13 -20 18 -20 12z"/>
<path d="M6985 5560 c3 -5 11 -10 16 -10 6 0 7 5 4 10 -3 6 -11 10 -16 10 -6
0 -7 -4 -4 -10z"/>
<path d="M6826 5535 c-20 -15 -12 -20 22 -16 10 2 11 -2 2 -18 -6 -12 -7 -21
-3 -21 4 0 -8 -14 -27 -31 -19 -17 -29 -28 -22 -24 6 3 12 1 12 -4 0 -6 5 -11
11 -11 8 0 9 4 0 13 -11 14 -5 27 11 27 5 0 7 -4 3 -9 -3 -5 0 -13 6 -17 8 -4
9 -3 5 4 -4 7 -3 12 3 12 5 0 12 -6 14 -12 4 -10 6 -10 6 0 1 7 -6 15 -14 18
-12 5 -13 10 -4 20 6 8 8 14 4 14 -4 0 -1 7 6 16 11 14 11 18 -4 29 -9 6 -14
15 -10 18 11 12 -1 7 -21 -8z"/>
<path d="M6970 5543 c0 -4 5 -15 10 -23 8 -13 10 -13 10 2 0 9 -4 20 -10 23
-5 3 -10 3 -10 -2z"/>
<path d="M7011 5524 c0 -11 3 -14 6 -6 3 7 2 16 -1 19 -3 4 -6 -2 -5 -13z"/>
<path d="M6780 5519 c0 -5 5 -7 10 -4 6 3 10 8 10 11 0 2 -4 4 -10 4 -5 0 -10
-5 -10 -11z"/>
<path d="M6950 5521 c0 -5 5 -13 10 -16 6 -3 10 -2 10 4 0 5 -4 13 -10 16 -5
3 -10 2 -10 -4z"/>
<path d="M6791 5501 c-9 -6 -6 -8 13 -8 14 0 23 3 20 8 -7 11 -15 11 -33 0z"/>
<path d="M6923 5503 c9 -2 14 -9 11 -15 -4 -6 -2 -8 4 -4 6 3 13 2 17 -4 4 -6
13 -5 27 3 16 9 22 9 25 0 5 -15 23 -17 23 -4 0 15 -40 24 -54 12 -10 -8 -17
-7 -26 4 -7 8 -20 14 -29 14 -13 -1 -13 -2 2 -6z"/>
<path d="M6900 5480 c0 -5 5 -10 10 -10 6 0 10 5 10 10 0 6 -4 10 -10 10 -5 0
-10 -4 -10 -10z"/>
<path d="M6796 5464 c-3 -9 -12 -14 -20 -11 -10 4 -12 0 -9 -14 5 -17 7 -17
25 7 11 14 18 27 15 30 -2 3 -7 -3 -11 -12z"/>
<path d="M6870 5458 c0 -6 3 -8 7 -5 3 4 12 -2 20 -13 8 -11 22 -20 31 -19 13
0 12 2 -4 9 -12 4 -24 15 -27 24 -7 19 -27 22 -27 4z"/>
<path d="M6930 5459 c0 -5 -5 -7 -12 -3 -7 4 -8 3 -4 -5 6 -9 11 -9 22 0 17
14 18 19 4 19 -5 0 -10 -5 -10 -11z"/>
<path d="M6957 5453 c-4 -3 -7 -11 -7 -17 0 -6 5 -5 12 2 6 6 9 14 7 17 -3 3
-9 2 -12 -2z"/>
<path d="M6747 5417 c-3 -7 -2 -19 3 -26 5 -10 8 -9 13 2 3 7 2 19 -3 26 -5
10 -8 9 -13 -2z"/>
<path d="M6876 5415 c-3 -8 -12 -12 -21 -9 -8 3 -15 2 -15 -4 0 -15 28 -34 42
-29 8 3 6 6 -5 6 -10 1 -15 6 -12 11 4 6 11 8 16 5 5 -4 17 -1 26 5 16 9 15
10 -4 5 -18 -5 -22 -3 -17 9 3 9 4 16 1 16 -3 0 -7 -7 -11 -15z"/>
<path d="M6950 5415 c0 -5 5 -17 10 -25 5 -8 10 -10 10 -5 0 6 -5 17 -10 25
-5 8 -10 11 -10 5z"/>
<path d="M6776 5394 c-4 -9 -4 -19 -1 -22 2 -3 7 3 11 12 3 9 11 13 17 9 6 -3
7 -1 3 5 -10 17 -23 15 -30 -4z"/>
<path d="M6930 5398 c0 -9 5 -20 10 -23 13 -8 13 5 0 25 -8 13 -10 13 -10 -2z"/>
<path d="M7020 5403 c0 -5 5 -15 10 -23 7 -12 9 -10 7 8 -1 19 -17 33 -17 15z"/>
<path d="M6807 5375 c-16 -11 -17 -16 -5 -34 11 -18 11 -23 -2 -31 -10 -7 -11
-10 -2 -10 18 0 26 28 13 44 -10 11 -8 17 6 24 10 6 16 13 13 15 -3 3 -13 -1
-23 -8z"/>
<path d="M6901 5367 c-8 -12 -10 -19 -6 -15 5 4 14 0 20 -9 11 -15 15 -16 31
-3 13 12 18 12 21 3 3 -7 9 -13 15 -13 7 0 7 5 -1 13 -11 14 -5 27 11 27 5 0
7 -4 3 -9 -3 -5 -1 -12 4 -15 13 -8 7 -36 -10 -47 -11 -7 -11 -9 3 -9 9 0 22
-8 27 -17 6 -10 11 -13 11 -6 0 6 -4 15 -10 18 -11 7 -9 33 4 54 6 9 4 18 -7
26 -9 7 -13 16 -9 20 4 4 -15 -5 -42 -21 -35 -19 -48 -23 -44 -13 11 28 -6 40
-21 16z m119 -17 c0 -5 -2 -10 -4 -10 -3 0 -8 5 -11 10 -3 6 -1 10 4 10 6 0
11 -4 11 -10z"/>
<path d="M6732 5375 c4 -4 3 -14 -4 -22 -8 -11 -7 -12 6 -7 19 7 21 20 4 30
-7 4 -10 4 -6 -1z"/>
<path d="M6831 5360 c-9 -5 -4 -7 13 -7 29 0 32 2 13 10 -8 3 -20 2 -26 -3z"/>
<path d="M6767 5345 c6 -11 8 -26 6 -33 -6 -15 -23 -6 -19 11 1 7 1 9 -1 4 -3
-4 -9 -4 -15 -1 -5 3 -4 -3 4 -15 16 -26 24 -26 39 0 9 17 8 24 -6 38 -16 15
-17 15 -8 -4z"/>
<path d="M6836 5333 c6 -4 14 -15 17 -23 5 -11 6 -9 4 4 -1 11 -9 21 -17 23
-10 3 -11 2 -4 -4z"/>
<path d="M6870 5328 c0 -6 3 -8 7 -5 3 4 12 -1 18 -10 11 -14 17 -15 38 -6 25
12 26 11 22 -18 -2 -16 0 -27 5 -24 15 9 5 60 -11 56 -8 -2 -23 -6 -33 -9 -12
-3 -17 -1 -13 5 4 6 0 14 -9 17 -22 8 -24 8 -24 -6z"/>
<path d="M6704 5288 c-12 -15 -13 -18 -3 -10 13 10 19 9 30 -5 12 -15 12 -16
-6 -9 -11 4 -16 4 -13 0 9 -9 -15 -33 -27 -27 -5 2 0 -4 12 -15 12 -11 19 -23
15 -27 -4 -5 -1 -5 6 -1 18 10 15 26 -5 26 -13 0 -9 8 17 31 19 17 31 29 25
26 -12 -6 -36 18 -28 27 4 3 4 6 1 6 -3 0 -13 -10 -24 -22z"/>
<path d="M6833 5284 c0 -17 2 -22 7 -13 5 6 6 18 3 26 -8 19 -10 16 -10 -13z"/>
<path d="M6874 5302 c3 -5 0 -13 -6 -15 -8 -3 -6 -6 5 -6 19 -1 23 14 5 25 -6
4 -8 3 -4 -4z"/>
<path d="M6780 5286 c0 -2 9 -6 20 -9 11 -3 20 -1 20 4 0 5 -9 9 -20 9 -11 0
-20 -2 -20 -4z"/>
<path d="M6896 5274 c-4 -9 -4 -19 -1 -22 2 -3 7 3 11 12 4 9 4 19 1 22 -2 3
-7 -3 -11 -12z"/>
<path d="M6931 5274 c0 -11 3 -14 6 -6 3 7 2 16 -1 19 -3 4 -6 -2 -5 -13z"/>
<path d="M6980 5265 c-9 -10 -9 -15 -1 -15 6 0 11 5 11 11 0 5 5 7 12 3 7 -4
8 -3 4 4 -9 15 -11 15 -26 -3z"/>
<path d="M6781 5254 c12 -15 11 -16 -11 -10 -20 6 -22 5 -10 -4 12 -10 11 -11
-8 -7 -12 3 -20 1 -16 -4 8 -14 27 -11 59 12 17 12 22 19 13 15 -10 -3 -18 -1
-18 4 0 6 -5 10 -11 10 -8 0 -7 -6 2 -16z"/>
<path d="M6861 5254 c12 -15 11 -16 -11 -10 -21 6 -22 5 -7 -4 9 -6 21 -8 27
-5 5 3 16 -7 24 -22 8 -15 15 -21 15 -13 0 8 -11 27 -24 43 -25 29 -47 39 -24
11z"/>
<path d="M6910 5240 c0 -5 5 -10 10 -10 6 0 10 5 10 10 0 6 -4 10 -10 10 -5 0
-10 -4 -10 -10z"/>
<path d="M6945 5241 c3 -5 1 -12 -5 -16 -5 -3 -10 -14 -10 -23 1 -12 5 -10 15
8 17 30 18 40 4 40 -5 0 -8 -4 -4 -9z"/>
<path d="M7000 5240 c0 -5 5 -10 10 -10 6 0 10 5 10 10 0 6 -4 10 -10 10 -5 0
-10 -4 -10 -10z"/>
<path d="M6826 5224 c12 -11 23 -25 25 -32 3 -8 9 -5 17 9 8 12 9 18 3 15 -6
-4 -23 1 -38 10 -28 16 -28 16 -7 -2z"/>
<path d="M6981 5213 c12 -15 12 -16 -3 -10 -25 9 -32 -9 -14 -35 9 -12 16 -18
16 -13 0 5 6 1 13 -10 11 -14 16 -15 22 -5 5 8 4 11 -3 6 -19 -11 -19 18 0 38
10 11 18 24 18 28 0 5 -11 -3 -23 -18 -14 -16 -29 -24 -35 -20 -16 10 -15 27
1 20 8 -3 20 3 28 12 9 12 10 15 2 10 -7 -4 -13 -2 -13 3 0 6 -5 11 -11 11 -8
0 -7 -6 2 -17z"/>
<path d="M6790 5210 c0 -5 5 -10 10 -10 6 0 10 5 10 10 0 6 -4 10 -10 10 -5 0
-10 -4 -10 -10z"/>
<path d="M6664 5195 c-14 -11 -15 -14 -3 -9 10 3 20 1 24 -5 3 -6 12 -11 18
-11 7 0 4 6 -5 14 -10 7 -15 16 -11 19 12 13 -3 7 -23 -8z"/>
<path d="M6736 5194 c-3 -12 -15 -29 -26 -39 -11 -10 -20 -25 -20 -34 1 -12 3
-11 12 4 6 11 20 30 30 42 11 12 18 28 16 35 -3 8 -7 5 -12 -8z"/>
<path d="M6771 5199 c0 -9 6 -22 14 -29 11 -9 12 -16 4 -26 -12 -14 -3 -54 12
-54 13 0 11 18 -3 23 -10 3 -10 9 -1 25 8 14 9 23 3 27 -6 4 -7 11 -4 17 4 6
2 8 -4 4 -6 -3 -13 2 -15 11 -4 15 -5 15 -6 2z"/>
<path d="M6824 5202 c3 -5 0 -12 -6 -15 -7 -2 -10 -7 -7 -11 3 -4 12 0 18 8 9
11 9 16 0 22 -7 4 -9 3 -5 -4z"/>
<path d="M6875 5190 c-3 -5 -1 -10 4 -10 6 0 11 5 11 10 0 6 -2 10 -4 10 -3 0
-8 -4 -11 -10z"/>
<path d="M6901 5171 c-8 -5 -21 -7 -30 -4 -13 4 -14 3 -2 -5 10 -7 21 -7 34 0
11 6 22 6 26 1 13 -20 72 -54 84 -50 8 4 6 6 -4 6 -8 1 -31 15 -49 31 -37 33
-39 34 -59 21z"/>
<path d="M6665 5160 c3 -5 11 -10 16 -10 6 0 7 5 4 10 -3 6 -11 10 -16 10 -6
0 -7 -4 -4 -10z"/>
<path d="M6755 5160 c3 -5 11 -10 16 -10 6 0 7 5 4 10 -3 6 -11 10 -16 10 -6
0 -7 -4 -4 -10z"/>
<path d="M6825 5160 c-3 -5 -2 -10 4 -10 5 0 13 5 16 10 3 6 2 10 -4 10 -5 0
-13 -4 -16 -10z"/>
<path d="M6651 5136 c7 -15 15 -23 17 -16 3 7 -3 19 -13 28 -15 16 -16 15 -4
-12z"/>
<path d="M6735 5140 c3 -5 14 -10 23 -10 15 0 15 2 2 10 -20 13 -33 13 -25 0z"/>
<path d="M6859 5137 c11 -14 5 -27 -11 -27 -5 0 -7 4 -3 9 3 5 0 13 -6 17 -8
4 -9 3 -5 -4 4 -7 2 -12 -3 -12 -6 0 -11 5 -11 12 0 6 -3 8 -7 4 -5 -4 -1 -13
8 -20 15 -11 15 -13 -1 -33 -10 -12 -20 -20 -23 -17 -3 3 -10 -4 -17 -15 -6
-12 -18 -21 -27 -21 -11 0 -8 -6 11 -21 29 -23 53 -15 35 11 -9 13 -10 12 -5
-2 3 -10 1 -18 -4 -18 -18 0 -21 20 -6 42 9 12 16 19 16 14 0 -4 12 5 28 21
15 17 41 37 58 46 31 16 32 16 32 -9 0 -19 -3 -22 -14 -13 -10 8 -14 8 -14 0
0 -6 4 -11 10 -11 5 0 7 -8 3 -17 -3 -10 -4 -16 -1 -13 10 10 51 75 43 68 -4
-4 -14 0 -20 9 -11 15 -15 16 -31 3 -13 -12 -18 -12 -21 -2 -3 6 -9 12 -15 12
-7 0 -7 -5 1 -13z"/>
<path d="M6605 5119 c-4 -6 -4 -13 -1 -16 3 -4 6 -1 6 6 0 7 5 9 12 5 7 -4 8
-3 4 4 -9 15 -13 15 -21 1z"/>
<path d="M6717 5123 c-4 -3 -7 -11 -7 -17 0 -6 5 -5 12 2 6 6 9 14 7 17 -3 3
-9 2 -12 -2z"/>
<path d="M6626 5099 c-10 -10 -22 -16 -26 -14 -5 3 -11 -2 -14 -11 -9 -24 -8
-25 12 -9 9 8 26 21 37 29 11 8 18 16 15 19 -3 2 -14 -4 -24 -14z"/>
<path d="M6731 5097 c-8 -10 -7 -14 4 -14 8 0 12 4 9 8 -2 4 4 10 13 12 15 4
15 5 2 6 -9 0 -22 -5 -28 -12z"/>
<path d="M6968 5098 c12 -6 22 -18 23 -27 0 -11 2 -12 6 -3 7 17 -15 42 -36
41 -11 0 -10 -3 7 -11z"/>
<path d="M6645 5079 c-16 -12 -22 -19 -12 -15 9 3 17 1 17 -4 0 -6 5 -10 11
-10 8 0 7 6 -2 17 -12 15 -12 16 4 10 24 -9 54 3 35 14 -18 12 -19 12 -53 -12z"/>
<path d="M6870 5080 c0 -11 4 -20 9 -20 5 0 7 9 4 20 -3 11 -7 20 -9 20 -2 0
-4 -9 -4 -20z"/>
<path d="M6760 5080 c0 -5 5 -10 10 -10 6 0 10 5 10 10 0 6 -4 10 -10 10 -5 0
-10 -4 -10 -10z"/>
<path d="M6842 5074 c-7 -8 -8 -14 -3 -14 10 0 25 19 20 25 -2 1 -10 -3 -17
-11z"/>
<path d="M6943 5060 c0 -20 3 -26 8 -18 7 10 12 11 29 1 11 -7 25 -13 32 -13
7 0 -3 9 -22 19 -19 11 -34 24 -32 30 1 6 -2 11 -6 11 -5 0 -9 -14 -9 -30z"/>
<path d="M6689 5053 c-10 -11 -10 -14 -1 -9 6 4 12 2 12 -3 0 -6 7 -11 15 -11
8 0 15 5 15 10 0 6 -3 9 -7 9 -20 -3 -26 2 -13 11 8 5 10 10 4 10 -6 0 -18 -8
-25 -17z"/>
<path d="M6730 5066 c0 -2 6 -9 14 -15 11 -9 16 -9 22 0 4 8 3 9 -4 5 -7 -4
-12 -2 -12 3 0 6 -4 11 -10 11 -5 0 -10 -2 -10 -4z"/>
<path d="M6917 5057 c-3 -8 -2 -20 3 -26 5 -9 8 -4 8 13 0 29 -3 32 -11 13z"/>
<path d="M6623 5031 c1 -13 -4 -26 -11 -28 -8 -3 -10 2 -6 14 5 14 4 15 -4 3
-14 -18 -7 -29 18 -27 10 1 16 5 14 9 -3 4 0 8 6 8 6 0 9 4 6 9 -4 5 -3 11 1
14 5 2 3 2 -4 1 -6 -2 -14 2 -17 9 -2 7 -4 1 -3 -12z"/>
<path d="M6814 5038 c-4 -5 -1 -15 6 -21 10 -9 12 -8 6 7 -4 13 -2 17 7 13 8
-3 20 -2 26 3 9 5 4 8 -13 8 -15 0 -29 -5 -32 -10z"/>
<path d="M6659 5009 c-8 -16 -8 -24 1 -33 9 -8 11 -7 10 4 -4 27 0 41 10 35 5
-3 8 -11 6 -18 -1 -7 -1 -9 1 -4 3 4 9 4 15 1 5 -3 4 3 -4 15 -16 26 -24 26
-39 0z"/>
<path d="M6849 5013 c-13 -15 -12 -15 9 -4 23 12 28 21 13 21 -5 0 -15 -7 -22
-17z"/>
<path d="M6899 5017 c11 -14 5 -27 -11 -27 -5 0 -6 4 -3 10 4 6 -1 7 -11 3
-11 -4 -13 -8 -6 -11 7 -2 9 -9 5 -15 -4 -7 5 -4 19 5 26 17 28 17 37 1 5 -10
12 -15 15 -12 6 6 -38 59 -49 59 -4 0 -2 -6 4 -13z"/>
<path d="M6950 5019 c-12 -8 -9 -9 10 -4 23 6 24 5 7 -9 -12 -9 -14 -16 -8
-21 6 -3 11 -1 11 4 0 6 3 10 8 10 19 -3 23 2 12 16 -15 18 -20 18 -40 4z"/>
<path d="M6715 5010 c3 -5 8 -10 11 -10 2 0 4 5 4 10 0 6 -5 10 -11 10 -5 0
-7 -4 -4 -10z"/>
<path d="M6558 5003 c7 -3 16 -2 19 1 4 3 -2 6 -13 5 -11 0 -14 -3 -6 -6z"/>
<path d="M6745 5003 c3 -7 1 -13 -4 -13 -6 0 -11 -5 -11 -11 0 -8 4 -9 13 0
14 11 27 5 27 -11 0 -5 -4 -7 -9 -3 -5 3 -13 0 -17 -6 -4 -8 -3 -9 4 -5 7 4
12 3 12 -3 0 -5 -6 -12 -12 -14 -10 -4 -10 -6 0 -6 7 -1 15 6 18 14 5 12 10
13 20 4 8 -6 14 -8 14 -4 0 4 7 1 16 -6 14 -11 18 -11 29 4 6 9 15 13 20 9 4
-4 2 3 -6 15 -14 24 -32 12 -22 -15 5 -12 2 -12 -15 -3 -12 7 -22 8 -22 4 0
-4 -14 8 -31 27 -17 19 -28 29 -24 23z"/>
<path d="M6817 4993 c-4 -3 -7 -11 -7 -17 0 -6 5 -5 12 2 6 6 9 14 7 17 -3 3
-9 2 -12 -2z"/>
<path d="M6570 4986 c0 -2 6 -9 14 -15 11 -9 16 -9 22 0 4 8 3 9 -4 5 -7 -4
-12 -2 -12 3 0 6 -4 11 -10 11 -5 0 -10 -2 -10 -4z"/>
<path d="M6986 4975 c-11 -8 -18 -16 -15 -18 2 -1 11 -8 21 -15 11 -9 18 -10
23 -2 4 6 1 9 -6 8 -6 -2 -14 3 -16 10 -3 6 1 10 9 9 7 -2 10 -2 5 0 -4 3 -5
9 -1 14 7 12 2 11 -20 -6z"/>
<path d="M6617 4965 c-4 -8 -14 -15 -24 -15 -15 0 -15 -2 3 -15 15 -11 16 -17
6 -23 -8 -6 -3 -9 17 -9 29 0 29 0 8 18 -18 14 -19 19 -8 33 8 9 12 19 9 22
-3 3 -8 -2 -11 -11z"/>
<path d="M6695 4970 c-3 -5 -3 -14 0 -20 8 -13 35 -13 35 0 0 5 -7 7 -15 4 -8
-4 -15 -2 -15 4 0 6 6 13 13 15 9 4 9 6 0 6 -6 1 -15 -3 -18 -9z"/>
<path d="M6913 4954 c0 -17 2 -22 7 -13 5 6 6 18 3 26 -8 19 -10 16 -10 -13z"/>
<path d="M6542 4950 c-7 -11 -10 -20 -6 -20 7 0 34 27 34 34 0 13 -16 5 -28
-14z"/>
<path d="M6636 4955 c-9 -26 -7 -32 5 -12 6 10 9 21 6 23 -2 3 -7 -2 -11 -11z"/>
<path d="M6874 4944 c-12 -13 -19 -26 -15 -30 3 -4 -5 -4 -19 0 -46 13 -75 17
-68 11 3 -4 12 -8 20 -9 7 -1 24 -6 37 -10 18 -6 28 -4 37 8 11 15 13 15 28 1
9 -9 16 -11 16 -5 0 6 -7 13 -15 16 -12 5 -13 9 -4 20 20 24 6 22 -17 -2z"/>
<path d="M6661 4946 c-9 -11 -10 -20 -1 -35 14 -26 22 -26 38 0 8 12 9 18 4
15 -6 -3 -12 -3 -15 1 -2 5 -2 3 -1 -4 4 -17 -13 -26 -19 -11 -2 7 0 21 5 31
11 21 5 22 -11 3z"/>
<path d="M6557 4926 c-4 -9 -3 -15 2 -11 5 3 11 0 13 -7 3 -7 7 -5 11 6 4 9 3
15 -2 11 -5 -3 -11 0 -13 7 -3 7 -7 5 -11 -6z"/>
<path d="M6727 4919 c7 -7 15 -10 18 -7 3 3 -2 9 -12 12 -14 6 -15 5 -6 -5z"/>
<path d="M6534 4896 c4 -13 2 -17 -7 -13 -26 10 -37 -8 -14 -22 12 -8 19 -10
15 -6 -4 5 0 14 10 21 14 11 15 15 3 26 -12 11 -13 10 -7 -6z"/>
<path d="M6712 4905 c5 -9 -15 -36 -24 -32 -2 1 4 -5 14 -14 9 -9 14 -20 10
-23 -3 -4 2 -4 13 0 11 5 14 9 7 12 -7 2 -10 8 -7 13 4 5 -2 6 -12 2 -16 -6
-17 -5 -4 11 14 17 15 17 28 0 11 -16 13 -16 13 -1 0 9 8 21 18 26 9 6 12 11
7 11 -6 0 -16 -5 -23 -12 -8 -8 -15 -8 -28 3 -10 8 -15 10 -12 4z"/>
<path d="M6877 4903 c-13 -12 -7 -23 11 -22 10 0 12 3 4 6 -6 2 -10 9 -6 14 6
10 0 12 -9 2z"/>
<path d="M6917 4897 c-3 -8 -2 -20 3 -26 5 -9 8 -4 8 13 0 29 -3 32 -11 13z"/>
<path d="M6790 4890 c0 -5 5 -10 10 -10 6 0 10 5 10 10 0 6 -4 10 -10 10 -5 0
-10 -4 -10 -10z"/>
<path d="M6551 4869 c-12 -21 -6 -43 10 -34 5 4 9 2 9 -3 0 -16 -13 -22 -27
-11 -8 7 -13 8 -13 1 0 -5 8 -13 17 -16 12 -5 14 -9 5 -18 -7 -7 -12 -19 -11
-27 0 -10 4 -6 10 8 8 19 12 21 24 11 9 -7 15 -8 15 -2 0 5 -7 13 -16 16 -13
5 -14 9 -4 21 13 15 4 39 -11 30 -5 -4 -9 -2 -9 3 0 16 13 22 27 11 17 -15 17
-2 0 16 -11 11 -16 10 -26 -6z"/>
<path d="M6580 4885 c0 -8 29 -12 39 -5 9 5 4 8 -13 8 -14 0 -26 -2 -26 -3z"/>
<path d="M6766 4881 c-3 -5 1 -14 9 -21 10 -9 15 -9 15 -1 0 6 -5 11 -11 11
-5 0 -7 5 -4 10 3 6 4 10 1 10 -3 0 -7 -4 -10 -9z"/>
<path d="M6821 4877 c-1 -11 -6 -15 -13 -11 -6 4 -8 3 -4 -4 3 -6 2 -13 -4
-17 -6 -4 -5 -13 3 -27 9 -16 9 -22 0 -25 -15 -5 -17 -23 -4 -23 15 0 24 41
12 53 -8 8 -6 16 5 28 9 10 14 24 11 31 -3 8 -6 6 -6 -5z"/>
<path d="M6850 4878 c0 -9 5 -20 10 -23 13 -8 13 5 0 25 -8 13 -10 13 -10 -2z"/>
<path d="M6646 4855 c-6 -16 -26 -16 -39 0 -5 6 -7 3 -3 -7 3 -10 0 -18 -6
-18 -6 0 -8 -3 -5 -6 4 -4 13 -2 21 5 11 9 15 9 18 0 3 -8 12 -7 33 5 27 15
27 16 5 10 -22 -6 -23 -5 -11 10 7 9 9 16 3 16 -5 0 -12 -7 -16 -15z"/>
<path d="M6909 4850 c13 -11 28 -20 35 -19 6 0 1 5 -11 11 -13 6 -23 15 -23
20 0 4 -6 8 -12 8 -7 -1 -2 -10 11 -20z"/>
<path d="M6477 4853 c-9 -9 -9 -23 1 -22 19 3 25 -2 12 -11 -8 -5 -10 -10 -4
-10 18 0 37 27 24 35 -5 3 -10 3 -10 -2 0 -4 -4 -2 -8 5 -5 7 -11 9 -15 5z"/>
<path d="M6959 4843 l24 -16 -22 -9 c-16 -6 -30 -3 -49 11 -26 18 -28 18 -57
0 -19 -12 -24 -19 -14 -19 9 0 22 7 29 15 10 12 15 12 36 -2 13 -8 24 -23 24
-32 0 -12 2 -13 9 -3 4 8 19 19 31 25 21 11 29 35 9 30 -5 -2 -9 2 -9 7 0 6
-8 10 -17 10 -14 0 -13 -3 6 -17z"/>
<path d="M6755 4840 c3 -5 11 -10 16 -10 6 0 7 5 4 10 -3 6 -11 10 -16 10 -6
0 -7 -4 -4 -10z"/>
<path d="M6825 4840 c-3 -5 -2 -10 4 -10 5 0 13 5 16 10 3 6 2 10 -4 10 -5 0
-13 -4 -16 -10z"/>
<path d="M6674 4815 c-4 -8 -10 -12 -16 -9 -5 3 -4 -3 3 -15 14 -22 31 -9 22
17 -5 12 -2 12 23 -1 52 -28 71 -46 56 -55 -8 -6 -3 -9 17 -9 l29 0 -24 20
c-23 18 -24 20 -7 32 10 7 15 17 10 21 -4 4 -7 2 -7 -4 0 -7 -5 -12 -11 -12
-5 0 -7 5 -3 12 4 7 3 8 -5 4 -6 -4 -9 -12 -6 -17 4 -5 2 -9 -3 -9 -16 0 -22
13 -11 27 8 8 8 13 1 13 -6 0 -12 -6 -15 -12 -4 -10 -7 -10 -18 0 -17 16 -28
15 -35 -3z"/>
<path d="M6877 4813 c-4 -3 -7 -11 -7 -17 0 -6 5 -5 12 2 6 6 9 14 7 17 -3 3
-9 2 -12 -2z"/>
<path d="M6501 4800 c-9 -5 -4 -7 13 -7 29 0 32 2 13 10 -8 3 -20 2 -26 -3z"/>
<path d="M6580 4805 c0 -8 29 -12 39 -5 9 5 4 8 -13 8 -14 0 -26 -2 -26 -3z"/>
<path d="M6904 4802 c3 -5 0 -12 -6 -15 -7 -2 -10 -7 -7 -11 3 -4 12 0 18 8 9
11 9 16 0 22 -7 4 -9 3 -5 -4z"/>
<path d="M6990 4800 c0 -5 5 -10 11 -10 5 0 7 5 4 10 -3 6 -8 10 -11 10 -2 0
-4 -4 -4 -10z"/>
<path d="M6954 4789 c-4 -7 -3 -9 4 -5 5 3 12 0 15 -6 2 -7 7 -10 11 -7 4 3 0
12 -8 18 -11 9 -16 9 -22 0z"/>
<path d="M6611 4776 c-9 -10 -7 -19 10 -37 11 -13 18 -19 16 -14 -6 13 18 36
29 27 5 -4 3 0 -4 8 -12 13 -15 13 -24 -4 -8 -15 -12 -16 -19 -5 -5 9 -1 18
14 26 16 9 18 12 6 13 -9 0 -22 -6 -28 -14z"/>
<path d="M6695 4780 c-7 -11 44 -94 53 -85 4 3 2 9 -4 13 -16 10 -39 55 -36
70 3 14 -4 16 -13 2z"/>
<path d="M6842 4783 c16 -4 16 -7 3 -32 -13 -26 -13 -30 4 -45 16 -15 22 -15
40 -4 27 16 26 24 -1 39 -13 6 -20 8 -16 4 8 -9 -14 -35 -24 -29 -4 3 -2 16 4
29 6 14 16 21 22 18 6 -4 5 1 -3 10 -7 9 -21 16 -30 16 -14 -1 -13 -2 1 -6z
m48 -68 c-7 -8 -17 -15 -22 -15 -6 0 -5 7 2 15 7 8 17 15 22 15 6 0 5 -7 -2
-15z"/>
<path d="M6721 4775 c0 -5 3 -16 8 -23 7 -11 9 -10 14 3 4 9 3 14 -2 10 -5 -3
-12 1 -14 7 -3 7 -6 9 -6 3z"/>
<path d="M6560 4760 c0 -5 5 -10 11 -10 5 0 7 5 4 10 -3 6 -8 10 -11 10 -2 0
-4 -4 -4 -10z"/>
<path d="M6820 4755 c0 -8 2 -15 4 -15 2 0 6 7 10 15 3 8 1 15 -4 15 -6 0 -10
-7 -10 -15z"/>
<path d="M6910 4755 c0 -8 2 -15 4 -15 2 0 6 7 10 15 3 8 1 15 -4 15 -6 0 -10
-7 -10 -15z"/>
<path d="M6936 4754 c-10 -25 1 -29 14 -5 6 12 7 21 1 21 -5 0 -12 -7 -15 -16z"/>
<path d="M6520 4749 c0 -5 -6 -7 -12 -3 -7 4 -4 -2 6 -14 11 -12 24 -22 30
-22 6 0 3 5 -6 11 -10 5 -15 16 -12 24 4 8 3 15 0 15 -3 0 -6 -5 -6 -11z"/>
<path d="M6961 4739 c-10 -18 -10 -23 6 -34 10 -7 20 -11 23 -8 3 2 -3 9 -13
15 -14 8 -16 13 -6 24 6 8 10 16 8 19 -3 2 -11 -5 -18 -16z"/>
<path d="M6593 4724 c0 -17 2 -22 7 -13 5 6 6 18 3 26 -8 19 -10 16 -10 -13z"/>
<path d="M6666 4735 c-20 -15 -12 -20 22 -16 11 2 11 -2 2 -21 -12 -22 -12
-22 6 -5 18 17 18 19 2 31 -10 7 -15 16 -11 19 11 12 -1 7 -21 -8z"/>
<path d="M6550 4733 c8 -3 19 -11 23 -17 6 -7 7 -6 4 4 -2 8 -12 16 -23 17
-13 2 -15 1 -4 -4z"/>
<path d="M6740 4725 c0 -8 29 -12 39 -5 9 5 4 8 -13 8 -14 0 -26 -2 -26 -3z"/>
<path d="M6927 4705 c6 -11 8 -26 6 -33 -6 -15 -23 -6 -19 11 1 7 1 9 -1 4 -3
-4 -9 -4 -15 -1 -5 3 -4 -3 4 -15 16 -26 24 -26 39 0 9 17 8 24 -6 38 -16 15
-17 15 -8 -4z"/>
<path d="M6610 4701 c0 -5 -6 -16 -13 -23 -12 -11 -12 -16 1 -28 14 -13 15
-12 10 2 -4 8 0 25 8 37 9 12 11 21 5 21 -6 0 -11 -4 -11 -9z"/>
<path d="M6645 4700 c3 -5 11 -10 16 -10 6 0 7 5 4 10 -3 6 -11 10 -16 10 -6
0 -7 -4 -4 -10z"/>
<path d="M6806 4695 c-6 -16 -26 -16 -39 0 -5 6 -7 5 -5 -3 2 -8 7 -13 12 -12
5 1 12 -4 16 -10 6 -9 15 -8 36 4 26 15 27 16 4 10 -22 -6 -23 -5 -11 10 7 9
9 16 3 16 -5 0 -12 -7 -16 -15z"/>
<path d="M6550 4696 c0 -2 9 -6 20 -9 11 -3 18 -1 14 4 -5 9 -34 13 -34 5z"/>
<path d="M6634 4682 c3 -5 0 -13 -6 -15 -8 -3 -6 -6 5 -6 19 -1 23 14 5 25 -6
4 -8 3 -4 -4z"/>
<path d="M6706 4682 c-2 -4 -1 -14 4 -22 7 -11 12 -12 21 -3 6 6 8 16 5 22 -8
13 -23 14 -30 3z m24 -12 c0 -5 -2 -10 -4 -10 -3 0 -8 5 -11 10 -3 6 -1 10 4
10 6 0 11 -4 11 -10z"/>
<path d="M6964 4682 c3 -5 0 -13 -6 -15 -9 -4 -10 -6 -1 -6 17 -1 25 16 12 25
-7 4 -9 3 -5 -4z"/>
<path d="M6657 4650 c-15 -12 -27 -16 -30 -10 -3 6 -4 5 -2 -2 1 -7 8 -12 14
-10 6 1 11 -2 11 -8 0 -5 5 -10 11 -10 8 0 9 4 0 13 -11 14 -5 27 12 27 6 0 7
-3 4 -7 -4 -3 -2 -12 4 -19 7 -8 7 -14 -1 -19 -5 -3 -10 -11 -10 -17 0 -6 10
2 22 17 20 25 20 29 5 40 -9 7 -14 15 -10 18 14 15 -6 6 -30 -13z m43 -20 c0
-5 -2 -10 -4 -10 -3 0 -8 5 -11 10 -3 6 -1 10 4 10 6 0 11 -4 11 -10z"/>
<path d="M6752 4665 c4 -5 0 -14 -10 -21 -14 -11 -15 -15 -3 -26 12 -11 13
-10 7 6 -4 13 -2 17 7 13 26 -10 37 8 14 22 -12 8 -19 10 -15 6z"/>
<path d="M6834 4656 c-3 -9 -11 -13 -16 -10 -6 4 -2 -5 7 -20 16 -23 16 -26 1
-32 -9 -3 -16 -11 -16 -16 0 -7 5 -6 13 1 14 11 27 5 27 -11 0 -5 -4 -7 -9 -3
-5 3 -13 0 -17 -6 -4 -8 -3 -9 4 -5 7 4 12 3 12 -3 0 -5 -6 -12 -12 -14 -10
-4 -10 -6 0 -6 7 -1 15 6 18 14 5 12 10 13 20 4 15 -12 34 -4 34 14 0 7 -4 6
-10 -3 -9 -13 -13 -11 -30 10 -17 22 -17 26 -5 36 8 6 15 15 15 19 0 4 -6 2
-14 -4 -11 -9 -13 -6 -13 13 0 25 0 25 30 10 23 -12 27 -18 16 -25 -8 -5 -9
-9 -3 -9 6 0 18 8 25 17 10 11 10 14 2 9 -7 -4 -13 -3 -13 2 0 5 -8 12 -17 16
-10 3 -24 9 -30 12 -7 3 -16 -1 -19 -10z"/>
<path d="M6940 4646 c0 -2 9 -6 20 -9 11 -3 20 -1 20 4 0 5 -9 9 -20 9 -11 0
-20 -2 -20 -4z"/>
<path d="M6762 4610 c-21 -18 -22 -19 -3 -17 11 1 18 3 15 6 -2 3 6 11 18 18
14 7 17 12 8 12 -8 0 -25 -8 -38 -19z"/>
<path d="M6946 4605 c13 -20 20 -23 35 -14 10 5 19 12 19 15 0 2 -9 0 -20 -6
-18 -10 -31 2 -12 13 4 2 1 2 -5 1 -7 -2 -13 1 -13 6 0 6 -5 10 -10 10 -6 0
-3 -11 6 -25z"/>
<path d="M6703 4595 c-19 -20 -16 -30 3 -14 15 12 16 11 9 -11 -4 -14 -4 -22
0 -18 10 9 15 58 7 58 -4 -1 -13 -7 -19 -15z"/>
<path d="M6795 4599 c-11 -16 -1 -19 13 -3 7 8 8 14 3 14 -5 0 -13 -5 -16 -11z"/>
<path d="M6905 4600 c-4 -6 -16 -8 -28 -5 -12 2 -16 2 -9 -1 6 -3 9 -10 6 -16
-4 -6 0 -6 12 1 38 21 49 31 37 31 -6 0 -15 -5 -18 -10z"/>
<path d="M6919 4588 c-1 -2 -3 -16 -5 -33 -2 -20 0 -25 5 -16 5 8 7 20 4 28
-4 9 0 11 13 6 12 -4 15 -3 10 5 -6 11 -24 17 -27 10z"/>
<path d="M6743 4568 c-19 -25 -24 -43 -6 -22 10 12 25 24 33 27 13 5 12 6 -1
6 -9 1 -21 -5 -26 -11z"/>
<path d="M6670 4560 c0 -6 7 -10 15 -10 8 0 15 2 15 4 0 2 -7 6 -15 10 -8 3
-15 1 -15 -4z"/>
<path d="M6790 4561 c0 -5 5 -13 10 -16 6 -3 10 -2 10 4 0 5 -4 13 -10 16 -5
3 -10 2 -10 -4z"/>
<path d="M6754 4549 c-4 -7 -3 -9 4 -5 5 3 12 0 15 -6 2 -7 7 -10 11 -7 4 3 0
12 -8 18 -11 9 -16 9 -22 0z"/>
<path d="M6940 4545 c-7 -9 -10 -18 -7 -22 4 -3 9 2 13 11 3 9 11 13 17 9 6
-3 7 -1 3 5 -9 15 -11 15 -26 -3z"/>
<path d="M6740 4520 c0 -5 5 -10 10 -10 6 0 10 5 10 10 0 6 -4 10 -10 10 -5 0
-10 -4 -10 -10z"/>
<path d="M6795 4520 c-4 -6 -11 -7 -17 -4 -6 4 -8 2 -4 -4 3 -6 -2 -13 -11
-15 -16 -4 -16 -5 -1 -6 9 0 19 3 23 9 3 5 12 7 20 4 8 -4 12 -10 9 -15 -3 -5
-10 -6 -16 -3 -7 5 -8 2 -3 -6 6 -10 4 -12 -8 -7 -24 9 -21 0 4 -14 12 -6 19
-7 16 -2 -3 4 1 14 9 20 25 24 25 -7 0 -32 -31 -30 -35 -46 -6 -20 11 10 20
13 20 7 0 -7 5 -12 12 -12 9 0 9 3 0 12 -7 7 -8 17 -2 29 8 14 4 22 -15 37
-13 11 -21 22 -18 26 3 3 4 6 0 6 -3 0 -9 -5 -12 -10z"/>
<path d="M6839 4518 c-10 -6 -6 -7 11 -2 22 6 23 5 11 -10 -7 -9 -9 -16 -3
-16 5 0 13 7 16 16 3 8 10 12 16 9 5 -3 10 -2 10 3 0 12 -44 12 -61 0z"/>
<path d="M6957 4524 c-3 -3 -3 -13 1 -22 5 -15 4 -15 -11 -3 -20 16 -23 5 -3
-14 11 -12 15 -10 25 11 6 14 11 27 11 29 0 7 -16 6 -23 -1z"/>
<path d="M6730 4486 c0 -2 8 -10 18 -17 15 -13 16 -12 3 4 -13 16 -21 21 -21
13z"/>
<path d="M6901 4480 c-9 -5 -4 -7 13 -7 29 0 32 2 13 10 -8 3 -20 2 -26 -3z"/>
<path d="M6850 4455 c0 -5 5 -17 10 -25 5 -8 10 -10 10 -5 0 6 -5 17 -10 25
-5 8 -10 11 -10 5z"/>
<path d="M6878 4453 c6 -3 12 -10 12 -18 0 -7 7 -19 17 -26 15 -13 15 -12 5 8
-10 18 -9 24 4 31 11 6 7 9 -18 9 -18 0 -27 -2 -20 -4z"/>
<path d="M6941 4444 c0 -11 3 -14 6 -6 3 7 2 16 -1 19 -3 4 -6 -2 -5 -13z"/>
<path d="M6946 4415 c-19 -14 -14 -35 8 -35 8 0 20 8 27 18 11 14 11 15 -1 5
-8 -7 -21 -13 -29 -13 -13 1 -12 4 3 15 11 8 18 17 15 19 -2 2 -12 -2 -23 -9z"/>
<path d="M6870 4400 c0 -5 5 -10 10 -10 6 0 10 5 10 10 0 6 -4 10 -10 10 -5 0
-10 -4 -10 -10z"/>
<path d="M6850 4386 c0 -4 7 -14 15 -22 8 -9 15 -11 15 -6 0 5 -7 15 -15 22
-8 7 -15 9 -15 6z"/>
<path d="M6897 4383 c-4 -3 -7 -16 -6 -27 0 -19 1 -19 10 3 10 24 8 36 -4 24z"/>
<path d="M6917 4360 c-3 -11 -1 -20 4 -20 5 0 9 9 9 20 0 11 -2 20 -4 20 -2 0
-6 -9 -9 -20z"/>
<path d="M6947 4335 c-11 -7 -25 -11 -33 -8 -8 3 -14 3 -14 0 0 -15 31 -13 56
4 16 10 25 19 19 19 -5 -1 -18 -7 -28 -15z"/>
<path d="M6945 4304 l-30 -25 33 17 c17 10 32 22 32 26 0 12 -2 11 -35 -18z"/>
<path d="M6963 4284 c3 -4 2 -16 -4 -28 -10 -20 -10 -20 5 -2 19 24 20 36 4
36 -6 0 -8 -3 -5 -6z"/>
<path d="M6940 4271 c0 -7 -5 -9 -12 -5 -7 5 -8 3 -3 -5 5 -9 10 -10 18 -2 6
6 8 14 4 18 -4 3 -7 1 -7 -6z"/>
</g>
</svg>
